<svg width="206" height="111" viewBox="0 0 206 111" version="1.1" xmlns="http://www.w3.org/2000/svg" xmlns:xlink="http://www.w3.org/1999/xlink">
<title>RBM-Logo-for-use-on-Dark-Blue-Background</title>
<desc>Created using Figma</desc>
<g id="Canvas" transform="translate(-7036 680)">
<g id="RBM-Logo-for-use-on-Dark-Blue-Background">
<g id="Vector">
<use xlink:href="#path0_fill" transform="translate(7040.85 -587.063)" fill="#A4CD39"/>
</g>
<g id="Vector">
<use xlink:href="#path1_fill" transform="translate(7066.38 -587.188)" fill="#A4CD39"/>
</g>
<g id="Vector">
<use xlink:href="#path2_fill" transform="translate(7093.25 -587.063)" fill="#A4CD39"/>
</g>
<g id="Vector">
<use xlink:href="#path3_fill" transform="translate(7116.1 -587.063)" fill="#A4CD39"/>
</g>
<g id="Vector">
<use xlink:href="#path4_fill" transform="translate(7138.83 -587.063)" fill="#A4CD39"/>
</g>
<g id="Vector">
<use xlink:href="#path5_fill" transform="translate(7158.42 -587.064)" fill="#A4CD39"/>
</g>
<g id="Vector">
<use xlink:href="#path6_fill" transform="translate(7180.71 -587.063)" fill="#A4CD39"/>
</g>
<g id="Vector">
<use xlink:href="#path7_fill" transform="translate(7189.68 -587.063)" fill="#A4CD39"/>
</g>
<g id="Vector">
<use xlink:href="#path8_fill" transform="translate(7213.67 -587.367)" fill="#A4CD39"/>
</g>
<g id="Vector">
<use xlink:href="#path9_fill" transform="translate(7036 -621.482)" fill="#A4CD39"/>
</g>
<g id="Vector">
<use xlink:href="#path10_fill" transform="translate(7071.48 -621.482)" fill="#A4CD39"/>
</g>
<g id="Vector">
<use xlink:href="#path11_fill" transform="translate(7097.83 -621.482)" fill="#A4CD39"/>
</g>
<g id="Vector">
<use xlink:href="#path12_fill" transform="translate(7132.9 -621.482)" fill="#A4CD39"/>
</g>
<g id="Vector">
<use xlink:href="#path13_fill" transform="translate(7157.11 -621.499)" fill="#FDFEFF"/>
</g>
<g id="Vector">
<use xlink:href="#path14_fill" transform="translate(7193.04 -614.015)" fill="#FDFEFF"/>
</g>
<g id="Vector">
<use xlink:href="#path15_fill" transform="translate(7208.51 -621.954)" fill="#FDFEFF"/>
</g>
<g id="Vector">
<use xlink:href="#path16_fill" transform="translate(7185.72 -662.336)" fill="#FDFEFF"/>
</g>
<g id="Vector">
<use xlink:href="#path17_fill" transform="translate(7186.47 -661.587)" fill="#FDFEFF"/>
</g>
<g id="Vector">
<use xlink:href="#path18_fill" transform="translate(7167.98 -680)" fill="#A4CD39"/>
</g>
</g>
</g>
<defs>
<path id="path0_fill" d="M 10.623 12.798L 10.498 12.798L 2.433 3.375L 2.433 17.636L -9.53674e-08 17.636L -9.53674e-08 -3.54004e-06L 2.528 -3.54004e-06L 10.59 9.625L 18.653 -3.54004e-06L 21.182 -3.54004e-06L 21.182 17.637L 18.684 17.637L 18.684 3.351L 10.623 12.798Z"/>
<path id="path1_fill" d="M 22.51 17.761L 19.825 17.761L 17.23 13.099L 5.186 13.099L 2.56 17.761L 2.28882e-07 17.761L 10.085 -3.54004e-06L 12.426 -3.54004e-06L 22.51 17.761ZM 11.224 2.316L 6.165 11.311L 16.249 11.311L 11.224 2.316Z"/>
<path id="path2_fill" d="M 15.238 17.636L 8.817 10.782L 2.498 10.782L 2.498 17.636L -1.09863e-06 17.636L -1.09863e-06 -3.54004e-06L 9.516 -3.54004e-06C 14.384 -3.54004e-06 17.512 2.091 17.512 5.266C 17.512 8.213 14.985 9.926 11.508 10.431L 18.305 17.637L 15.238 17.637L 15.238 17.636ZM 9.325 1.839L 2.498 1.839L 2.498 8.995L 9.294 8.995C 12.614 8.995 14.984 7.633 14.984 5.339C 14.984 3.148 12.899 1.839 9.325 1.839Z"/>
<path id="path3_fill" d="M 18.844 17.636L 15.713 17.636L 7.206 9.096L 2.499 12.9L 2.499 17.636L -2.0752e-06 17.636L -2.0752e-06 -3.54004e-06L 2.499 -3.54004e-06L 2.499 10.53L 15.209 -3.54004e-06L 18.432 -3.54004e-06L 8.948 7.711L 18.844 17.636Z"/>
<path id="path4_fill" d="M 15.996 1.813L 2.496 1.813L 2.496 7.835L 14.57 7.835L 14.57 9.649L 2.496 9.649L 2.496 15.821L 16.153 15.821L 16.153 17.635L 3.479e-06 17.635L 3.479e-06 -3.54004e-06L 15.996 -3.54004e-06L 15.996 1.813Z"/>
<path id="path5_fill" d="M 9.96 17.637L 7.433 17.637L 7.433 1.84L -1.28174e-06 1.84L -1.28174e-06 -2.99072e-06L 17.391 -2.99072e-06L 17.391 1.84L 9.96 1.84L 9.96 17.637Z"/>
<path id="path6_fill" d="M 2.496 -3.54004e-06L 2.496 17.637L 1.83105e-06 17.637L 1.83105e-06 -3.54004e-06L 2.496 -3.54004e-06Z"/>
<path id="path7_fill" d="M 16.277 -3.54004e-06L 18.715 -3.54004e-06L 18.715 17.637L 16.723 17.637L 2.434 3.176L 2.434 17.637L 6.83594e-06 17.637L 6.83594e-06 -3.54004e-06L 2.33601 -3.54004e-06L 16.277 14.135L 16.277 -3.54004e-06Z"/>
<path id="path8_fill" d="M 11.256 18.241C 4.297 18.241 -7.32422e-07 14.21 -7.32422e-07 9.147C -7.32422e-07 4.284 4.458 3.23486e-06 11.097 3.23486e-06C 14.828 3.23486e-06 17.136 0.857998 19.347 2.343L 17.737 3.857C 16.028 2.672 14.131 1.84 11.001 1.84C 6.10301 1.84 2.593 5.142 2.593 9.096C 2.593 13.329 5.97601 16.454 11.35 16.454C 13.879 16.454 16.218 15.672 17.738 14.69L 17.738 10.307L 11.002 10.307L 11.002 8.516L 20.14 8.516L 20.14 15.545C 18.085 17.008 14.982 18.241 11.256 18.241Z"/>
<path id="path9_fill" d="M 32.475 28.491L 26.954 28.491L 19.203 17.632L 4.745 17.632L 4.745 28.491L 0 28.491L 0 1.5564e-06L 22.585 1.5564e-06C 25.592 1.5564e-06 27.951 0.807999 29.668 2.421C 31.38 4.036 32.239 6.218 32.239 8.974C 32.239 11.386 31.539 13.329 30.138 14.798C 28.848 16.163 27.07 17.027 24.798 17.394L 32.475 28.491ZM 21.873 13.381C 25.538 13.381 27.373 11.91 27.373 8.973C 27.373 5.823 25.392 4.251 21.437 4.251L 4.745 4.251L 4.745 13.381L 21.873 13.381Z"/>
<path id="path10_fill" d="M 29.986 28.491L 1.19019e-06 28.491L 1.19019e-06 1.5564e-06L 28.879 1.5564e-06L 28.879 4.252L 4.745 4.252L 4.745 11.569L 21.52 11.569L 21.52 15.821L 4.745 15.821L 4.745 24.24L 29.986 24.24L 29.986 28.491Z"/>
<path id="path11_fill" d="M 36.275 28.491L 31.085 28.491L 27.784 22.116L 8.495 22.116L 5.194 28.491L -9.15527e-07 28.491L 15.151 1.5564e-06L 21.126 1.5564e-06L 36.275 28.491ZM 25.48 17.864L 18.183 4.063L 10.798 17.864L 25.48 17.864Z"/>
<path id="path12_fill" d="M 26.858 28.491L 1.52588e-06 28.491L 1.52588e-06 1.5564e-06L 4.744 1.5564e-06L 4.744 24.24L 26.857 24.24L 26.857 28.491L 26.858 28.491Z"/>
<path id="path13_fill" d="M 1.70898e-06 -5.49316e-07L 16.167 -5.49316e-07C 23.569 -5.49316e-07 31.122 1.326 31.122 7.92C 31.122 10.421 29.447 12.885 26.104 13.679L 26.104 13.907C 30.26 15.008 32.893 17.28 32.893 20.69C 32.893 26.563 25.596 28.57 18.904 28.57L 1.70898e-06 28.57L 1.70898e-06 -5.49316e-07ZM 14.143 10.988C 16.167 10.988 18.45 10.838 18.45 8.867C 18.45 6.744 15.869 6.897 13.838 6.897L 12.878 6.897L 12.878 10.988L 14.143 10.988ZM 12.877 21.749L 14.447 21.749C 16.727 21.749 20.019 21.713 20.019 19.363C 20.019 16.975 16.473 17.013 14.244 17.013L 12.877 17.013L 12.877 21.749Z"/>
<path id="path14_fill" d="M -5.61523e-06 6.10352e-07L 12.165 6.10352e-07L 12.165 21.085L -5.61523e-06 21.085L -5.61523e-06 6.10352e-07Z"/>
<path id="path15_fill" d="M 33.256 12.202C 33.175 16.863 33.175 20.765 29.596 24.403C 26.38 27.699 21.434 29.479 16.729 29.479C 7.479 29.479 -6.5918e-06 24.099 -6.5918e-06 14.929C -6.5918e-06 5.607 7.27701 1.43433e-06 16.81 1.43433e-06C 22.08 1.43433e-06 29.317 2.463 31.687 7.352L 21.394 10.914C 20.55 9.474 18.98 8.715 17.213 8.715C 13.271 8.715 11.098 11.898 11.098 15.347C 11.098 18.493 13.19 21.448 16.768 21.448C 18.501 21.448 20.711 20.691 21.233 18.948L 16.246 18.948L 16.246 12.203L 33.256 12.203L 33.256 12.202Z"/>
<path id="path16_fill" d="M 23.1488 3.98086C 20.1788 1.14986 16.1098 -0.284136 11.9858 0.046864C 8.12778 0.357864 4.68777 2.15286 2.54777 4.97286C -1.99823 10.9679 0.39578 17.9709 3.11578 21.2149C 5.23078 23.7379 5.22778 23.5229 5.22578 24.0579L 5.22578 24.1359L 5.19377 24.5109C 5.08577 25.6109 4.85078 28.0629 6.52278 29.6289C 6.45878 29.8419 6.41377 30.0619 6.41377 30.2959C 6.41377 31.2909 7.06478 32.1229 7.96278 32.4149C 7.15978 33.1519 6.67877 34.0689 6.67877 35.0649C 6.67877 36.3139 7.42977 38.1779 8.62577 38.9769C 8.04877 39.4639 7.70977 40.0529 7.70977 40.6869C 7.70977 42.3619 10.0708 43.7209 12.9848 43.7209C 15.8978 43.7209 18.2618 42.3619 18.2618 40.6869C 18.2618 40.0529 17.9208 39.4639 17.3448 38.9769C 18.5418 38.1779 19.2918 36.3129 19.2918 35.0649C 19.2918 34.0689 18.8108 33.1509 18.0078 32.4129C 18.9048 32.1219 19.5568 31.2899 19.5568 30.2949C 19.5568 29.0579 18.5548 28.0569 17.3208 28.0569L 12.4548 28.0569L 12.4548 24.2929C 12.4548 23.7649 12.7818 23.5649 13.2538 23.5649L 13.9818 23.5649C 16.0178 23.5649 17.2858 22.4959 17.2858 20.7439C 17.2858 18.9919 15.7628 18.3639 14.7358 18.0219C 13.7088 17.6799 13.0968 17.2089 13.1958 16.4119C 13.2968 15.6149 14.3078 15.2289 16.5318 15.1589C 16.7898 15.1509 17.0118 15.0959 17.2138 15.0119C 18.2138 14.6589 18.9428 13.6749 18.9428 12.5009C 18.9428 11.0309 17.8098 9.83986 16.4128 9.83986C 15.3668 9.83986 14.4708 10.5079 14.0868 11.4589C 13.6978 10.5089 12.8038 9.83986 11.7568 9.83986C 10.5708 9.83986 9.58178 10.7029 9.30978 11.8629L 9.22778 11.8629L 9.22778 16.3029C 9.22778 17.7759 9.84377 19.3809 11.4248 19.9969C 11.4248 19.9969 9.97378 20.7009 9.97378 22.5919L 9.97378 28.0569L 8.74177 28.0569C 8.67377 27.9839 8.59877 27.9149 8.51377 27.8589C 7.65177 27.2759 7.70278 25.9589 7.82078 24.7679L 7.86477 24.1349L 7.86477 24.0669C 7.87077 22.8549 7.66177 22.5309 5.13777 19.5189C 3.04477 17.0229 1.06378 11.2979 4.64978 6.56686C 6.33778 4.34386 9.08977 2.92486 12.2008 2.67486C 15.5778 2.40386 18.9058 3.57486 21.3308 5.88886C 25.9488 10.2909 22.8948 15.8759 20.1978 19.6939C 17.7928 23.0949 17.0968 23.5549 17.0968 25.5869C 17.0968 26.3139 17.6858 26.9059 18.4168 26.9059C 19.1458 26.9059 19.7348 26.3139 19.7348 25.5869C 19.7348 24.3549 20.1118 24.3829 22.3488 21.2159C 23.7038 19.2989 25.3468 16.7239 26.0398 13.7889C 26.9428 9.96986 25.9708 6.66886 23.1488 3.98086Z"/>
<path id="path17_fill" d="M 11.2996 0.0444929C 7.65359 0.336493 4.40658 2.02649 2.39758 4.67749C -1.88542 10.3255 0.377587 16.9265 2.94159 19.9865C 5.05459 22.5075 5.22958 22.4885 5.22758 23.3125L 5.22758 23.4195L 5.19159 23.8245C 5.08859 24.8675 4.87859 27.0165 6.28859 28.3355L 6.58458 28.6125L 6.49159 29.1035L 6.41359 29.5475C 6.41359 30.1885 6.83058 30.7545 7.44558 30.9545L 8.66758 31.3505L 7.72258 32.2185C 7.24758 32.6535 6.67958 33.3745 6.67958 34.3175C 6.67958 35.2665 7.25458 36.9135 8.29658 37.6085L 9.12259 38.1615L 8.36258 38.8025C 8.06458 39.0525 7.71158 39.4535 7.71158 39.9405C 7.71158 41.0205 9.56958 42.2265 12.2386 42.2265C 14.9076 42.2265 16.7656 41.0205 16.7656 39.9405C 16.7656 39.4545 16.4126 39.0525 16.1156 38.8025L 15.3536 38.1615L 16.1836 37.6085C 17.2236 36.9135 17.7976 35.2665 17.7976 34.3175C 17.7976 33.3745 17.2316 32.6535 16.7556 32.2165L 15.8126 31.3505L 17.0306 30.9545C 17.6496 30.7535 18.0646 30.1885 18.0646 29.5475C 18.0646 28.7245 17.3946 28.0565 16.5746 28.0565L 10.9596 28.0565L 10.9596 23.5455C 10.9596 22.6495 11.5676 22.0695 12.5076 22.0695L 13.2356 22.0695C 14.0016 22.0695 15.7936 21.8685 15.7936 19.9965C 15.7936 18.8915 14.9756 18.3925 13.7526 17.9845C 12.2586 17.4855 11.5706 16.6735 11.7096 15.5715C 11.9056 13.9975 13.8666 13.7235 15.7616 13.6625C 15.9106 13.6575 16.0456 13.6285 16.1736 13.5755C 16.9546 13.2985 17.4486 12.5735 17.4486 11.7525C 17.4486 11.2335 17.2596 10.7495 16.9126 10.3865C 16.5796 10.0335 16.1346 9.83949 15.6666 9.83949C 14.9576 9.83949 14.3156 10.2925 14.0316 10.9915L 13.3406 12.7015L 12.6476 10.9915C 12.3656 10.2925 11.7206 9.83949 11.0106 9.83949C 10.1976 9.83949 9.49059 10.4355 9.29059 11.2855C 9.29059 11.2855 9.26059 11.4165 9.22859 11.5475C 9.22859 12.2525 9.22859 15.5545 9.22859 15.5545C 9.22859 16.1005 9.35358 17.9295 10.9516 18.5515L 12.4966 19.1535L 11.0146 19.9175C 10.9726 19.9395 9.97659 20.4685 9.97659 21.8435L 9.97659 28.0555L 7.71058 28.0555L 7.44658 27.8165L 7.34758 27.7295C 6.04458 26.8505 6.23058 24.9605 6.33058 23.9455L 6.37158 23.3355C 6.37358 22.2435 6.17959 22.0695 3.81859 19.2515C 1.57759 16.5795 -0.542424 10.4455 3.30858 5.36749C 5.12158 2.97449 8.06658 1.44949 11.3916 1.18249C 14.9806 0.892491 18.5176 2.14049 21.0996 4.60049C 26.7156 9.95649 21.7046 17.0475 20.0596 19.3775C 17.7616 22.6285 17.0946 22.9915 17.0946 24.8385C 17.0946 25.1525 17.3526 25.4095 17.6686 25.4095C 17.9826 25.4095 18.2406 25.1525 18.2406 24.8385C 18.2406 23.4425 18.6366 23.3685 20.9926 20.0355C 22.3066 18.1745 23.9016 15.6775 24.5666 12.8685C 25.4046 9.32349 24.5026 6.26349 21.8866 3.77349C 19.0696 1.08949 15.2116 -0.269507 11.2996 0.0444929Z"/>
<path id="path18_fill" d="M 38.137 55.543C 40.278 54.888 42.336 53.958 44.271 52.723L 47.33 54.873C 48.406 55.633 49.638 55.946 50.251 55.332L 55.332 50.251C 55.947 49.637 55.617 48.421 54.871 47.332L 52.564 44.043C 53.861 41.812 54.792 39.428 55.358 36.977L 59.459 36.259C 60.759 36.035 61.854 35.386 61.852 34.518L 61.852 27.333C 61.852 26.462 60.759 25.836 59.456 25.592L 55.175 24.842C 54.566 22.509 53.616 20.246 52.336 18.129L 54.872 14.52C 55.634 13.445 55.946 12.21 55.336 11.598L 50.252 6.517C 49.641 5.903 48.424 6.232 47.331 6.978L 43.721 9.516C 41.6 8.231 39.338 7.285 37.004 6.68L 36.256 2.395C 36.035 1.089 35.386 0 34.517 0L 27.334 0.001C 26.462 -0.004 25.835 1.092 25.591 2.392L 24.875 6.495C 22.418 7.057 20.039 7.989 17.806 9.286L 14.518 6.98C 13.446 6.217 12.21 5.903 11.597 6.517L 6.516 11.597C 5.903 12.212 6.234 13.428 6.979 14.52L 9.128 17.58C 7.649 19.892 6.592 22.392 5.937 24.976L 2.391 25.593C 1.091 25.814 -0.00199335 26.464 6.64665e-06 27.335L 6.64665e-06 34.516C 6.64665e-06 35.387 1.093 36.015 2.392 36.257L 5.753 36.847C 6.355 39.55 7.40401 42.168 8.89901 44.594L 6.979 47.331C 6.213 48.406 5.903 49.64 6.518 50.255L 11.597 55.335C 12.208 55.946 13.43 55.621 14.519 54.873L 17.256 52.95C 19.026 54.04 21.717 55.243 22.827 55.506C 21.62 53.408 23.547 50.209 23.547 50.209C 15.873 47.384 10.403 40.012 10.401 31.36C 10.403 20.269 19.392 11.28 30.481 11.28C 41.572 11.281 50.56 20.269 50.56 31.361C 50.56 40.012 45.089 47.385 37.416 50.208C 37.417 50.207 39.099 52.771 38.137 55.543Z"/>
</defs>
</svg>
