<svg xmlns="http://www.w3.org/2000/svg" width="46" height="46" viewBox="0 0 46.4 46"><path d="M20.5 0C19.8 0 19.4 0.8 19.2 1.8l-0.5 3.1c-1.8 0.4-3.6 1.1-5.3 2.1l-2.5-1.7c-0.8-0.6-1.7-0.8-2.2-0.3l-3.8 3.8c-0.5 0.5-0.2 1.4 0.3 2.2l1.6 2.3c-1.1 1.7-1.9 3.6-2.4 5.5l-2.7 0.5C0.8 19.4 0 19.8 0 20.5l0 5.4c0 0.7 0.8 1.1 1.8 1.3l2.5 0.4c0.5 2 1.2 4 2.4 5.8l-1.4 2.1c-0.6 0.8-0.8 1.7-0.3 2.2l3.8 3.8c0.5 0.5 1.4 0.2 2.2-0.3l2.1-1.4c1.3 0.8 3.3 1.7 4.2 1.9-0.9-1.6 0.5-4 0.5-4-5.8-2.1-9.9-7.6-9.9-14.1 0-8.3 6.7-15.1 15.1-15.1 8.3 0 15.1 6.7 15.1 15.1 0 6.5-4.1 12-9.9 14.1 0 0 1.3 1.9 0.5 4 1.6-0.5 3.1-1.2 4.6-2.1l2.3 1.6c0.8 0.6 1.7 0.8 2.2 0.3l3.8-3.8c0.5-0.5 0.2-1.4-0.3-2.2l-1.7-2.5c1-1.7 1.7-3.5 2.1-5.3l3.1-0.5c1-0.2 1.8-0.7 1.8-1.3l0-5.4c0-0.7-0.8-1.1-1.8-1.3l-3.2-0.6c-0.5-1.7-1.2-3.4-2.1-5l1.9-2.7c0.6-0.8 0.8-1.7 0.3-2.2l-3.8-3.8c-0.5-0.5-1.4-0.2-2.2 0.3l-2.7 1.9C31.2 6.2 29.5 5.5 27.8 5L27.2 1.8C27 0.8 26.5 0 25.9 0Z" class="green"/><path d="m23.5 13.3c-0.4 0-0.8 0-1.2 0-2.9 0.2-5.5 1.6-7.1 3.7-3.4 4.5-1.6 9.7 0.4 12.2 1.6 1.9 1.6 1.7 1.6 2.1l0 0.1 0 0.3c-0.1 0.8-0.3 2.7 1 3.8 0 0.2-0.1 0.3-0.1 0.5 0 0.7 0.5 1.4 1.2 1.6-0.6 0.6-1 1.2-1 2 0 0.9 0.6 2.3 1.5 2.9-0.4 0.4-0.7 0.8-0.7 1.3 0 1.3 1.8 2.3 4 2.3 2.2 0 4-1 4-2.3 0-0.5-0.3-0.9-0.7-1.3 0.9-0.6 1.5-2 1.5-2.9 0-0.7-0.4-1.4-1-2 0.7-0.2 1.2-0.8 1.2-1.6 0-0.9-0.8-1.7-1.7-1.7l-3.7 0 0-2.8c0-0.4 0.2-0.5 0.6-0.5l0.5 0c1.5 0 2.5-0.8 2.5-2.1 0-1.3-1.1-1.8-1.9-2-0.8-0.3-1.2-0.6-1.2-1.2 0.1-0.6 0.8-0.9 2.5-0.9 0.2 0 0.4 0 0.5-0.1 0.8-0.3 1.3-1 1.3-1.9 0-1.1-0.8-2-1.9-2-0.8 0-1.5 0.5-1.7 1.2-0.3-0.7-1-1.2-1.7-1.2-0.9 0-1.6 0.6-1.8 1.5l-0.1 0 0 3.3c0 1.1 0.5 2.3 1.6 2.8 0 0-1.1 0.5-1.1 1.9l0 4.1-0.9 0c-0.1-0.1-0.1-0.1-0.2-0.1-0.6-0.4-0.6-1.4-0.5-2.3l0-0.5 0-0.1c0-0.9-0.2-1.2-2-3.4-1.6-1.9-3.1-6.2-0.4-9.7 1.3-1.7 3.3-2.7 5.7-2.9 2.5-0.2 5 0.7 6.8 2.4 3.5 3.3 1.2 7.5-0.8 10.4-1.8 2.6-2.3 2.9-2.3 4.4 0 0.5 0.4 1 1 1 0.5 0 1-0.4 1-1 0-0.9 0.3-0.9 2-3.3 1-1.4 2.2-3.4 2.8-5.6 0.7-2.9-0.1-5.3-2.2-7.4-1.9-1.9-4.5-2.9-7.2-3z" class="blue"/><defs><path d="m10.6 12.8-0.1 0-8.1-9.4 0 14.3-2.4 0 0-17.6L2.5 0 10.6 9.6 18.7 0l2.5 0 0 17.6-2.5 0 0-14.3-8.1 9.4z"/><path d="m22.5 17.8-2.7 0-2.6-4.7-12 0L2.6 17.8 0 17.8 10.1 0l2.3 0L22.5 17.8ZM11.2 2.3l-5.1 9 10.1 0-5-9z"/><path d="m15.2 17.6-6.4-6.9-6.3 0 0 6.9-2.5 0 0-17.6 9.5 0C14.4 0 17.5 2.1 17.5 5.3c0 2.9-2.5 4.7-6 5.2l6.8 7.2-3.1 0 0 0zM9.3 1.8l-6.8 0 0 7.2 6.8 0c3.3 0 5.7-1.4 5.7-3.7 0-2.2-2.1-3.5-5.7-3.5z"/><path d="m18.8 17.6-3.1 0-8.5-8.5-4.7 3.8 0 4.7-2.5 0 0-17.6 2.5 0L2.5 10.5 15.2 0l3.2 0L8.9 7.7l9.9 9.9z"/><path d="m16 1.8-13.5 0 0 6 12.1 0 0 1.8-12.1 0 0 6.2 13.7 0 0 1.8-16.2 0 0-17.6 16 0L16 1.8Z"/><path d="M2.5 0 2.5 17.6l-2.5 0 0-17.6 2.5 0z"/><path d="m16.3 0 2.4 0 0 17.6-2 0-14.3-14.5 0 14.5-2.4 0 0-17.6 2.3 0L16.3 14.1 16.3 0Z"/><path d="M11.3 18.2C4.3 18.2 0 14.2 0 9.1 0 4.3 4.5 0 11.1 0 14.8 0 17.1 0.9 19.3 2.3l-1.6 1.5C16 2.7 14.1 1.8 11 1.8c-4.9 0-8.4 3.3-8.4 7.3 0 4.2 3.4 7.4 8.8 7.4 2.5 0 4.9-0.8 6.4-1.8l0-4.4-6.7 0 0-1.8 9.1 0 0 7c-2.1 1.5-5.2 2.7-8.9 2.7z"/><path d="m32.5 28.5-5.5 0-7.8-10.9-14.5 0 0 10.9L0 28.5 0 0l22.6 0c3 0 5.4 0.8 7.1 2.4 1.7 1.6 2.6 3.8 2.6 6.6 0 2.4-0.7 4.4-2.1 5.8-1.3 1.4-3.1 2.2-5.3 2.6l7.7 11.1zM21.9 13.4c3.7 0 5.5-1.5 5.5-4.4 0-3.1-2-4.7-5.9-4.7l-16.7 0 0 9.1 17.1 0z"/><path d="m36.3 28.5-5.2 0-3.3-6.4-19.3 0-3.3 6.4-5.2 0L15.2 0l6 0L36.3 28.5ZM25.5 17.9 18.2 4.1l-7.4 13.8 14.7 0z"/><path d="m0 0 16.2 0C23.6 0 31.1 1.3 31.1 7.9c0 2.5-1.7 5-5 5.8l0 0.2c4.2 1.1 6.8 3.4 6.8 6.8 0 5.9-7.3 7.9-14 7.9l-18.9 0 0-28.6zM14.1 11c2 0 4.3-0.1 4.3-2.1 0-2.1-2.6-2-4.6-2l-1 0 0 4.1 1.3 0zm-1.3 10.8 1.6 0c2.3 0 5.6 0 5.6-2.4 0-2.4-3.5-2.3-5.8-2.3l-1.4 0 0 4.7z"/><path d="M0 0 12.2 0 12.2 21.1l-12.2 0 0-21.1z"/><path d="m33.3 12.2c-0.1 4.7-0.1 8.6-3.7 12.2-3.2 3.3-8.2 5.1-12.9 5.1C7.5 29.5 0 24.1 0 14.9 0 5.6 7.3 0 16.8 0 22.1 0 29.3 2.5 31.7 7.4L21.4 10.9C20.6 9.5 19 8.7 17.2 8.7c-3.9 0-6.1 3.2-6.1 6.6 0 3.1 2.1 6.1 5.7 6.1 1.7 0 3.9-0.8 4.5-2.5l-5 0 0-6.7 17 0 0 0z"/><path d="m23.1 4c-3-2.8-7-4.3-11.2-3.9-3.9 0.3-7.3 2.1-9.4 4.9-4.5 6-2.2 13 0.6 16.2 2.1 2.5 2.1 2.3 2.1 2.8l0 0.1 0 0.4c-0.1 1.1-0.3 3.6 1.3 5.1-0.1 0.2-0.1 0.4-0.1 0.7 0 1 0.7 1.8 1.5 2.1-0.8 0.7-1.3 1.7-1.3 2.7 0 1.2 0.8 3.1 1.9 3.9-0.6 0.5-0.9 1.1-0.9 1.7 0 1.7 2.4 3 5.3 3 2.9 0 5.3-1.4 5.3-3 0-0.6-0.3-1.2-0.9-1.7 1.2-0.8 1.9-2.7 1.9-3.9 0-1-0.5-1.9-1.3-2.7 0.9-0.3 1.5-1.1 1.5-2.1 0-1.2-1-2.2-2.2-2.2l-4.9 0 0-3.8c0-0.5 0.3-0.7 0.8-0.7l0.7 0c2 0 3.3-1.1 3.3-2.8 0-1.8-1.5-2.4-2.5-2.7-1-0.3-1.6-0.8-1.5-1.6 0.1-0.8 1.1-1.2 3.3-1.3 0.3 0 0.5-0.1 0.7-0.1 1-0.4 1.7-1.3 1.7-2.5 0-1.5-1.1-2.7-2.5-2.7-1 0-1.9 0.7-2.3 1.6-0.4-0.9-1.3-1.6-2.3-1.6-1.2 0-2.2 0.9-2.4 2l-0.1 0 0 4.4c0 1.5 0.6 3.1 2.2 3.7 0 0-1.5 0.7-1.5 2.6l0 5.5-1.2 0c-0.1-0.1-0.1-0.1-0.2-0.2-0.9-0.6-0.8-1.9-0.7-3.1l0-0.6 0-0.1c0-1.2-0.2-1.5-2.7-4.5-2.1-2.5-4.1-8.2-0.5-13 1.7-2.2 4.4-3.6 7.6-3.9 3.4-0.3 6.7 0.9 9.1 3.2 4.6 4.4 1.6 10-1.1 13.8-2.4 3.4-3.1 3.9-3.1 5.9 0 0.7 0.6 1.3 1.3 1.3 0.7 0 1.3-0.6 1.3-1.3 0-1.2 0.4-1.2 2.6-4.4 1.4-1.9 3-4.5 3.7-7.4 0.9-3.8-0.1-7.1-2.9-9.8z"/><path d="M11.3 0C7.7 0.3 4.4 2 2.4 4.7-1.9 10.3 0.4 16.9 2.9 20c2.1 2.5 2.3 2.5 2.3 3.3l0 0.1 0 0.4c-0.1 1-0.3 3.2 1.1 4.5l0.3 0.3-0.1 0.5-0.1 0.4c0 0.6 0.4 1.2 1 1.4l1.2 0.4-0.9 0.9c-0.5 0.4-1 1.2-1 2.1 0 0.9 0.6 2.6 1.6 3.3l0.8 0.6-0.8 0.6c-0.3 0.3-0.7 0.7-0.7 1.1 0 1.1 1.9 2.3 4.5 2.3 2.7 0 4.5-1.2 4.5-2.3 0-0.5-0.4-0.9-0.6-1.1l-0.8-0.6 0.8-0.6c1-0.7 1.6-2.3 1.6-3.3 0-0.9-0.6-1.7-1-2.1l-0.9-0.9 1.2-0.4c0.6-0.2 1-0.8 1-1.4 0-0.8-0.7-1.5-1.5-1.5l-5.6 0 0-4.5c0-0.9 0.6-1.5 1.5-1.5l0.7 0c0.8 0 2.6-0.2 2.6-2.1 0-1.1-0.8-1.6-2-2-1.5-0.5-2.2-1.3-2-2.4 0.2-1.6 2.2-1.8 4.1-1.9 0.1 0 0.3 0 0.4-0.1 0.8-0.3 1.3-1 1.3-1.8 0-0.5-0.2-1-0.5-1.4-0.3-0.4-0.8-0.5-1.2-0.5-0.7 0-1.4 0.5-1.6 1.2l-0.7 1.7-0.7-1.7c-0.3-0.7-0.9-1.2-1.6-1.2-0.8 0-1.5 0.6-1.7 1.4 0 0 0 0.1-0.1 0.3 0 0.7 0 4 0 4 0 0.5 0.1 2.4 1.7 3l1.5 0.6-1.5 0.8c0 0-1 0.6-1 1.9l0 6.2-2.3 0-0.3-0.2-0.1-0.1c-1.3-0.9-1.1-2.8-1-3.8l0-0.6c0-1.1-0.2-1.3-2.6-4.1-2.2-2.7-4.4-8.8-0.5-13.9 1.8-2.4 4.8-3.9 8.1-4.2 3.6-0.3 7.1 1 9.7 3.4 5.6 5.4 0.6 12.4-1 14.8-2.3 3.3-3 3.6-3 5.5 0 0.3 0.3 0.6 0.6 0.6 0.3 0 0.6-0.3 0.6-0.6 0-1.4 0.4-1.5 2.8-4.8 1.3-1.9 2.9-4.4 3.6-7.2 0.8-3.5-0.1-6.6-2.7-9.1-2.8-2.7-6.7-4-10.6-3.7z"/><path d="m38.1 55.5c2.1-0.7 4.2-1.6 6.1-2.8l3.1 2.2c1.1 0.8 2.3 1.1 2.9 0.5l5.1-5.1c0.6-0.6 0.3-1.8-0.5-2.9l-2.3-3.3c1.3-2.2 2.2-4.6 2.8-7.1l4.1-0.7c1.3-0.2 2.4-0.9 2.4-1.7l0-7.2c0-0.9-1.1-1.5-2.4-1.7l-4.3-0.7c-0.6-2.3-1.6-4.6-2.8-6.7l2.5-3.6c0.8-1.1 1.1-2.3 0.5-2.9L50.3 6.5C49.6 5.9 48.4 6.2 47.3 7l-3.6 2.5C41.6 8.2 39.3 7.3 37 6.7L36.3 2.4C36 1.1 35.4 0 34.5 0L27.3 0C26.5 0 25.8 1.1 25.6 2.4L24.9 6.5C22.4 7.1 20 8 17.8 9.3L14.5 7C13.4 6.2 12.2 5.9 11.6 6.5l-5.1 5.1c-0.6 0.6-0.3 1.8 0.5 2.9l2.1 3.1c-1.5 2.3-2.5 4.8-3.2 7.4l-3.5 0.6c-1.3 0.2-2.4 0.9-2.4 1.7l0 7.2C0 35.4 1.1 36 2.4 36.3l3.4 0.6c0.6 2.7 1.7 5.3 3.1 7.7L7 47.3C6.2 48.4 5.9 49.6 6.5 50.3l5.1 5.1c0.6 0.6 1.8 0.3 2.9-0.5l2.7-1.9c1.8 1.1 4.5 2.3 5.6 2.6-1.2-2.1 0.7-5.3 0.7-5.3C15.9 47.4 10.4 40 10.4 31.4c0-11.1 9-20.1 20.1-20.1 11.1 0 20.1 9 20.1 20.1 0 8.7-5.5 16-13.1 18.8 0 0 1.7 2.6 0.7 5.3z"/></defs></svg>