<?xml version="1.0" encoding="UTF-8" standalone="no"?>
<svg width="2048px" height="1515px" viewBox="0 0 2048 1515" version="1.1" xmlns="http://www.w3.org/2000/svg" xmlns:xlink="http://www.w3.org/1999/xlink" xmlns:sketch="http://www.bohemiancoding.com/sketch/ns">
    <!-- Generator: Sketch 3.2.2 (9983) - http://www.bohemiancoding.com/sketch -->
    <title>monitor</title>
    <desc>Created with Sketch.</desc>
    <defs></defs>
    <g id="Page-1" stroke="none" stroke-width="1" fill="none" fill-rule="evenodd" sketch:type="MSPage">
        <g id="Artboard-1" sketch:type="MSArtboardGroup" transform="translate(-280.000000, -106.000000)">
            <g id="monitor" sketch:type="MSLayerGroup" transform="translate(280.000000, 106.000000)">
                <path d="M0,40.0087535 C0,17.9125291 17.8994505,0 39.9912834,0 L2008.00872,0 C2030.09529,0 2048,17.9032345 2048,40.0087535 L2048,1245.99125 C2048,1268.08747 2030.10055,1286 2008.00872,1286 L39.9912834,1286 C17.9047075,1286 0,1268.09677 0,1245.99125 L0,40.0087535 Z M65,62 L1985,62 L1985,1142 L65,1142 L65,62 Z M680,1461.5 C680,1431.95277 703.957435,1408 733.502996,1408 L1314.497,1408 C1344.04589,1408 1368,1431.94627 1368,1461.5 L1368,1515 L680,1515 L680,1461.5 Z M912,1286 L1136,1286 L1136,1408 L912,1408 L912,1286 Z" fill="#000000" sketch:type="MSShapeGroup"></path>
                <circle id="Oval-1" fill="#FFFFFF" sketch:type="MSShapeGroup" cx="1024" cy="1214" r="46"></circle>
            </g>
        </g>
    </g>
</svg>